<svg version="1.1" id="Layer_1" xmlns="http://www.w3.org/2000/svg" xmlns:xlink="http://www.w3.org/1999/xlink" x="0px" y="0px"
	 width="100%" viewBox="0 0 512 512" enable-background="new 0 0 512 512" xml:space="preserve">
<path fill="#F0F0F0" opacity="1.000000" stroke="none" 
	d="
M289.000000,513.000000 
	C267.979095,513.000000 246.958206,513.000000 225.782272,512.639282 
	C224.787994,511.853485 223.992508,511.225311 223.102982,511.033630 
	C209.257492,508.050598 195.254333,505.673279 181.580292,502.051147 
	C162.723297,497.056030 145.068451,488.901245 128.264526,479.010223 
	C111.577873,469.188232 95.864799,458.022125 81.956909,444.457306 
	C70.409607,433.194855 59.300304,421.588318 49.817986,408.432983 
	C35.716362,388.869019 24.098192,368.024475 16.033543,345.294739 
	C9.719048,327.497711 4.408324,309.419037 2.903474,290.441559 
	C2.861644,289.914032 1.660537,289.478455 1.000002,289.000000 
	C1.000000,278.645782 1.000000,268.291534 1.468657,257.468506 
	C172.291550,256.999786 342.645782,256.999878 513.000000,257.000000 
	C513.000000,267.354218 513.000000,277.708466 512.638672,288.217621 
	C511.852661,289.212067 511.225098,290.007935 511.033539,290.897644 
	C508.053253,304.739655 505.681427,318.740234 502.055115,332.408661 
	C497.348053,350.150421 489.746277,366.793915 480.711853,382.803162 
	C471.772644,398.643677 461.665009,413.766052 449.245789,426.927460 
	C437.629120,439.238373 425.023621,450.792542 411.812927,461.381897 
	C391.740479,477.471497 369.196625,489.521729 344.834229,498.058472 
	C327.137451,504.259552 309.239410,509.505951 290.441132,511.096069 
	C289.910858,511.140900 289.478180,512.339417 289.000000,513.000000 
z"/>
<path fill="#D80127" opacity="1.000000" stroke="none" 
	d="
M513.000000,256.531342 
	C342.645782,256.999878 172.291550,256.999786 1.468657,256.999817 
	C1.000000,246.312439 1.000000,235.624878 1.411122,224.597839 
	C2.541354,221.146957 3.460463,218.066483 3.947673,214.919159 
	C7.578053,191.467529 14.738916,169.100357 24.763243,147.652267 
	C32.772568,130.515503 42.924084,114.728722 54.494808,99.712715 
	C65.883049,84.933540 78.677742,71.540253 92.981628,59.795704 
	C111.655121,44.463379 132.083221,31.694023 154.438065,22.151035 
	C177.898041,12.136279 202.122437,5.244413 227.586807,2.918206 
	C228.442474,2.840038 229.197876,1.664195 230.000000,1.000003 
	C246.687561,1.000000 263.375122,1.000000 280.344421,1.351217 
	C280.951874,2.071269 281.241638,2.720048 281.608673,2.767202 
	C287.708893,3.550910 293.844025,4.092647 299.922028,5.014092 
	C322.338379,8.412495 343.768768,15.167553 364.280579,24.729631 
	C383.657959,33.762871 402.285645,44.299255 418.088074,58.773251 
	C432.559448,72.028084 446.868042,85.694778 459.507721,100.651047 
	C472.815155,116.397476 483.038879,134.425507 491.336151,153.515991 
	C501.121643,176.030548 508.193237,199.184143 511.093781,223.588364 
	C511.196838,224.455521 512.341003,225.198929 513.000000,226.000000 
	C513.000000,236.020889 513.000000,246.041794 513.000000,256.531342 
M166.414749,171.993820 
	C146.540558,135.212524 158.639938,90.887894 192.615555,69.259346 
	C199.895050,64.625305 208.220139,61.633755 215.551987,58.130024 
	C184.581238,51.489670 151.196106,66.387558 134.252182,94.878906 
	C117.195869,123.559219 120.548065,159.976669 142.471375,185.607376 
	C161.373535,207.706009 192.982834,217.001633 216.383438,210.296356 
	C194.590714,204.457321 178.022141,192.039261 166.414749,171.993820 
M194.137070,115.471542 
	C196.294296,117.026497 198.345825,118.763420 200.634125,120.092697 
	C203.864685,121.969322 204.904739,124.065880 203.220963,127.770401 
	C201.668579,131.185837 200.938171,134.974854 199.459473,139.880768 
	C204.987122,135.914597 209.271362,132.840591 213.655777,129.694717 
	C218.098770,132.871704 222.321259,135.891006 227.783340,139.796677 
	C226.609207,135.963776 225.924789,133.621597 225.174774,131.300598 
	C222.543060,123.156364 222.534439,123.159081 229.307617,118.238396 
	C231.461563,116.673553 233.615784,115.109085 235.769867,113.544456 
	C231.178604,112.622627 227.041260,112.456795 222.925034,112.680069 
	C220.112000,112.832657 218.719696,111.869820 217.966125,109.126396 
	C216.810303,104.918541 215.267883,100.816872 213.596664,95.788956 
	C211.856750,101.063972 210.686783,105.413605 208.923477,109.507675 
	C208.332138,110.880630 206.297211,112.343491 204.803604,112.481377 
	C200.498108,112.878868 196.132156,112.621765 190.422699,112.621765 
	C192.309830,114.071907 192.951385,114.564903 194.137070,115.471542 
M295.204620,111.157028 
	C293.763489,111.645363 292.338959,112.486198 290.878113,112.554825 
	C286.775299,112.747559 282.657593,112.622040 277.193451,112.622040 
	C280.644714,115.195076 282.824005,117.210945 285.344055,118.615379 
	C290.257416,121.353592 292.269653,124.606781 289.224670,130.113968 
	C287.781067,132.724854 287.285004,135.859634 285.954590,140.025497 
	C291.414886,136.129120 295.822449,132.983948 300.413177,129.708099 
	C304.844421,132.874634 309.173248,135.967941 313.502045,139.061249 
	C312.935638,134.335159 311.360321,130.326843 310.434052,126.173767 
	C310.110016,124.720848 310.897369,122.361107 312.019897,121.369049 
	C315.285675,118.482887 318.977783,116.079163 323.677185,112.622269 
	C318.082153,112.622269 313.958252,112.438179 309.859955,112.682877 
	C306.803528,112.865356 305.404694,111.754974 304.642303,108.797119 
	C303.590240,104.715187 302.028259,100.764671 300.359955,95.789391 
	C298.562347,101.277771 297.072968,105.825073 295.204620,111.157028 
M239.892181,79.104950 
	C238.238876,79.104950 236.585571,79.104950 234.932266,79.104950 
	C238.483139,82.757912 242.238464,85.244766 245.641296,88.145210 
	C246.640717,88.997093 247.291977,91.178123 246.979691,92.480782 
	C245.916718,96.915138 244.352402,101.229324 242.642944,106.658150 
	C247.091171,103.437988 250.696365,101.054298 254.029099,98.336525 
	C256.277069,96.503372 257.937775,96.676559 260.115631,98.431618 
	C263.426483,101.099701 266.996643,103.445953 271.352661,106.571869 
	C269.381409,100.332649 267.745941,95.156174 266.063629,89.831444 
	C270.544342,86.462189 274.935242,83.160446 280.513977,78.965515 
	C273.442413,78.965515 267.997559,78.965515 262.505249,78.965515 
	C261.589813,76.155739 260.790680,73.635872 259.946655,71.131149 
	C259.099792,68.618164 258.208191,66.120270 256.930603,62.450909 
	C255.919281,65.572136 255.360657,67.297760 254.801056,69.023048 
	C251.530914,79.104912 251.530823,79.104881 239.892181,79.104950 
M287.218811,182.236008 
	C290.330963,184.459534 293.443115,186.683044 296.555267,188.906570 
	C296.210815,184.441635 295.333282,180.556137 293.799500,176.949753 
	C292.532623,173.970963 293.436554,172.443985 295.861450,170.843002 
	C299.246185,168.608292 302.429382,166.068253 306.948730,162.737778 
	C301.190552,162.737778 296.941559,162.579224 292.711792,162.796051 
	C290.091278,162.930389 288.823792,161.972183 288.109772,159.512131 
	C286.870331,155.242020 285.383026,151.043839 283.662933,145.786163 
	C282.117615,150.557556 280.695587,154.210770 279.779877,157.986771 
	C278.895844,161.632126 277.142700,163.207397 273.235138,162.817139 
	C269.563293,162.450424 265.826080,162.738541 262.117615,162.738541 
	C265.216370,166.226395 268.396912,168.827667 271.837250,171.021561 
	C274.304016,172.594574 274.566132,174.274002 273.624542,176.832626 
	C272.191437,180.726791 271.076355,184.737976 269.392975,190.072311 
	C274.165649,186.618011 277.770081,184.248566 281.083984,181.525620 
	C283.252167,179.744095 284.868011,180.055878 287.218811,182.236008 
M241.684662,171.536743 
	C245.263824,168.878983 248.842987,166.221222 253.532639,162.738846 
	C247.956421,162.738846 243.959183,162.513763 240.000626,162.808456 
	C236.699997,163.054169 235.284470,161.770523 234.495560,158.670761 
	C233.483856,154.695587 231.957748,150.851318 230.323242,145.963806 
	C228.215546,152.191589 226.471436,157.345078 224.559280,162.995056 
	C219.157944,162.995056 213.831955,162.995056 207.389755,162.995056 
	C211.876144,166.278000 215.506180,168.618149 218.703308,171.447479 
	C219.803741,172.421310 220.530579,174.774536 220.204773,176.222305 
	C219.249008,180.469360 217.678406,184.578033 215.892822,190.167801 
	C221.420334,186.190094 225.803116,183.036163 230.296066,179.802948 
	C234.784271,182.970642 239.139435,186.044434 244.650681,189.934158 
	C242.938309,184.617981 241.502853,180.754852 240.513672,176.780640 
	C240.149155,175.316162 240.837402,173.589645 241.684662,171.536743 
z"/>
<path fill="#000000" opacity="1.000000" stroke="none" 
	d="
M513.000000,225.531342 
	C512.341003,225.198929 511.196838,224.455521 511.093781,223.588364 
	C508.193237,199.184143 501.121643,176.030548 491.336151,153.515991 
	C483.038879,134.425507 472.815155,116.397476 459.507721,100.651047 
	C446.868042,85.694778 432.559448,72.028084 418.088074,58.773251 
	C402.285645,44.299255 383.657959,33.762871 364.280579,24.729631 
	C343.768768,15.167553 322.338379,8.412495 299.922028,5.014092 
	C293.844025,4.092647 287.708893,3.550910 281.608673,2.767202 
	C281.241638,2.720048 280.951874,2.071269 280.813080,1.351217 
	C358.259247,1.000000 435.518524,1.000000 513.000000,1.000000 
	C513.000000,75.687416 513.000000,150.375046 513.000000,225.531342 
z"/>
<path fill="#000000" opacity="1.000000" stroke="none" 
	d="
M229.531342,1.000003 
	C229.197876,1.664195 228.442474,2.840038 227.586807,2.918206 
	C202.122437,5.244413 177.898041,12.136279 154.438065,22.151035 
	C132.083221,31.694023 111.655121,44.463379 92.981628,59.795704 
	C78.677742,71.540253 65.883049,84.933540 54.494808,99.712715 
	C42.924084,114.728722 32.772568,130.515503 24.763243,147.652267 
	C14.738916,169.100357 7.578053,191.467529 3.947673,214.919159 
	C3.460463,218.066483 2.541354,221.146957 1.411122,224.129181 
	C1.000000,149.738663 1.000000,75.477310 1.000000,1.000000 
	C77.020760,1.000000 153.041718,1.000000 229.531342,1.000003 
z"/>
<path fill="#000000" opacity="1.000000" stroke="none" 
	d="
M1.000002,289.468658 
	C1.660537,289.478455 2.861644,289.914032 2.903474,290.441559 
	C4.408324,309.419037 9.719048,327.497711 16.033543,345.294739 
	C24.098192,368.024475 35.716362,388.869019 49.817986,408.432983 
	C59.300304,421.588318 70.409607,433.194855 81.956909,444.457306 
	C95.864799,458.022125 111.577873,469.188232 128.264526,479.010223 
	C145.068451,488.901245 162.723297,497.056030 181.580292,502.051147 
	C195.254333,505.673279 209.257492,508.050598 223.102982,511.033630 
	C223.992508,511.225311 224.787994,511.853485 225.313614,512.639282 
	C150.406296,513.000000 75.812599,513.000000 1.000000,513.000000 
	C1.000000,438.645905 1.000000,364.291626 1.000002,289.468658 
z"/>
<path fill="#000000" opacity="1.000000" stroke="none" 
	d="
M289.468658,513.000000 
	C289.478180,512.339417 289.910858,511.140900 290.441132,511.096069 
	C309.239410,509.505951 327.137451,504.259552 344.834229,498.058472 
	C369.196625,489.521729 391.740479,477.471497 411.812927,461.381897 
	C425.023621,450.792542 437.629120,439.238373 449.245789,426.927460 
	C461.665009,413.766052 471.772644,398.643677 480.711853,382.803162 
	C489.746277,366.793915 497.348053,350.150421 502.055115,332.408661 
	C505.681427,318.740234 508.053253,304.739655 511.033539,290.897644 
	C511.225098,290.007935 511.852661,289.212067 512.638672,288.686279 
	C513.000000,363.593719 513.000000,438.187408 513.000000,513.000000 
	C438.645905,513.000000 364.291626,513.000000 289.468658,513.000000 
z"/>
<path fill="#F0EDEE" opacity="1.000000" stroke="none" 
	d="
M166.613281,172.306366 
	C178.022141,192.039261 194.590714,204.457321 216.383438,210.296356 
	C192.982834,217.001633 161.373535,207.706009 142.471375,185.607376 
	C120.548065,159.976669 117.195869,123.559219 134.252182,94.878906 
	C151.196106,66.387558 184.581238,51.489670 215.551987,58.130024 
	C208.220139,61.633755 199.895050,64.625305 192.615555,69.259346 
	C158.639938,90.887894 146.540558,135.212524 166.613281,172.306366 
z"/>
<path fill="#EFEBEB" opacity="1.000000" stroke="none" 
	d="
M193.865005,115.264725 
	C192.951385,114.564903 192.309830,114.071907 190.422699,112.621765 
	C196.132156,112.621765 200.498108,112.878868 204.803604,112.481377 
	C206.297211,112.343491 208.332138,110.880630 208.923477,109.507675 
	C210.686783,105.413605 211.856750,101.063972 213.596664,95.788956 
	C215.267883,100.816872 216.810303,104.918541 217.966125,109.126396 
	C218.719696,111.869820 220.112000,112.832657 222.925034,112.680069 
	C227.041260,112.456795 231.178604,112.622627 235.769867,113.544456 
	C233.615784,115.109085 231.461563,116.673553 229.307617,118.238396 
	C222.534439,123.159081 222.543060,123.156364 225.174774,131.300598 
	C225.924789,133.621597 226.609207,135.963776 227.783340,139.796677 
	C222.321259,135.891006 218.098770,132.871704 213.655777,129.694717 
	C209.271362,132.840591 204.987122,135.914597 199.459473,139.880768 
	C200.938171,134.974854 201.668579,131.185837 203.220963,127.770401 
	C204.904739,124.065880 203.864685,121.969322 200.634125,120.092697 
	C198.345825,118.763420 196.294296,117.026497 193.865005,115.264725 
z"/>
<path fill="#EFEAEB" opacity="1.000000" stroke="none" 
	d="
M295.394104,110.764702 
	C297.072968,105.825073 298.562347,101.277771 300.359955,95.789391 
	C302.028259,100.764671 303.590240,104.715187 304.642303,108.797119 
	C305.404694,111.754974 306.803528,112.865356 309.859955,112.682877 
	C313.958252,112.438179 318.082153,112.622269 323.677185,112.622269 
	C318.977783,116.079163 315.285675,118.482887 312.019897,121.369049 
	C310.897369,122.361107 310.110016,124.720848 310.434052,126.173767 
	C311.360321,130.326843 312.935638,134.335159 313.502045,139.061249 
	C309.173248,135.967941 304.844421,132.874634 300.413177,129.708099 
	C295.822449,132.983948 291.414886,136.129120 285.954590,140.025497 
	C287.285004,135.859634 287.781067,132.724854 289.224670,130.113968 
	C292.269653,124.606781 290.257416,121.353592 285.344055,118.615379 
	C282.824005,117.210945 280.644714,115.195076 277.193451,112.622040 
	C282.657593,112.622040 286.775299,112.747559 290.878113,112.554825 
	C292.338959,112.486198 293.763489,111.645363 295.394104,110.764702 
z"/>
<path fill="#EFE8E9" opacity="1.000000" stroke="none" 
	d="
M240.337738,79.104965 
	C251.530823,79.104881 251.530914,79.104912 254.801056,69.023048 
	C255.360657,67.297760 255.919281,65.572136 256.930603,62.450909 
	C258.208191,66.120270 259.099792,68.618164 259.946655,71.131149 
	C260.790680,73.635872 261.589813,76.155739 262.505249,78.965515 
	C267.997559,78.965515 273.442413,78.965515 280.513977,78.965515 
	C274.935242,83.160446 270.544342,86.462189 266.063629,89.831444 
	C267.745941,95.156174 269.381409,100.332649 271.352661,106.571869 
	C266.996643,103.445953 263.426483,101.099701 260.115631,98.431618 
	C257.937775,96.676559 256.277069,96.503372 254.029099,98.336525 
	C250.696365,101.054298 247.091171,103.437988 242.642944,106.658150 
	C244.352402,101.229324 245.916718,96.915138 246.979691,92.480782 
	C247.291977,91.178123 246.640717,88.997093 245.641296,88.145210 
	C242.238464,85.244766 238.483139,82.757912 234.932266,79.104950 
	C236.585571,79.104950 238.238876,79.104950 240.337738,79.104965 
z"/>
<path fill="#EFEAEB" opacity="1.000000" stroke="none" 
	d="
M286.913788,182.045868 
	C284.868011,180.055878 283.252167,179.744095 281.083984,181.525620 
	C277.770081,184.248566 274.165649,186.618011 269.392975,190.072311 
	C271.076355,184.737976 272.191437,180.726791 273.624542,176.832626 
	C274.566132,174.274002 274.304016,172.594574 271.837250,171.021561 
	C268.396912,168.827667 265.216370,166.226395 262.117615,162.738541 
	C265.826080,162.738541 269.563293,162.450424 273.235138,162.817139 
	C277.142700,163.207397 278.895844,161.632126 279.779877,157.986771 
	C280.695587,154.210770 282.117615,150.557556 283.662933,145.786163 
	C285.383026,151.043839 286.870331,155.242020 288.109772,159.512131 
	C288.823792,161.972183 290.091278,162.930389 292.711792,162.796051 
	C296.941559,162.579224 301.190552,162.737778 306.948730,162.737778 
	C302.429382,166.068253 299.246185,168.608292 295.861450,170.843002 
	C293.436554,172.443985 292.532623,173.970963 293.799500,176.949753 
	C295.333282,180.556137 296.210815,184.441635 296.555267,188.906570 
	C293.443115,186.683044 290.330963,184.459534 286.913788,182.045868 
z"/>
<path fill="#EFEAEB" opacity="1.000000" stroke="none" 
	d="
M241.365067,171.759689 
	C240.837402,173.589645 240.149155,175.316162 240.513672,176.780640 
	C241.502853,180.754852 242.938309,184.617981 244.650681,189.934158 
	C239.139435,186.044434 234.784271,182.970642 230.296066,179.802948 
	C225.803116,183.036163 221.420334,186.190094 215.892822,190.167801 
	C217.678406,184.578033 219.249008,180.469360 220.204773,176.222305 
	C220.530579,174.774536 219.803741,172.421310 218.703308,171.447479 
	C215.506180,168.618149 211.876144,166.278000 207.389755,162.995056 
	C213.831955,162.995056 219.157944,162.995056 224.559280,162.995056 
	C226.471436,157.345078 228.215546,152.191589 230.323242,145.963806 
	C231.957748,150.851318 233.483856,154.695587 234.495560,158.670761 
	C235.284470,161.770523 236.699997,163.054169 240.000626,162.808456 
	C243.959183,162.513763 247.956421,162.738846 253.532639,162.738846 
	C248.842987,166.221222 245.263824,168.878983 241.365067,171.759689 
z"/>
</svg>